<svg width="14" height="14" viewBox="0 0 14 14" fill="none" xmlns="http://www.w3.org/2000/svg">
<path d="M6.41666 13.0833C6.26389 12.9306 6.18389 12.7361 6.17666 12.5C6.16944 12.2639 6.2425 12.0694 6.39583 11.9167L10.4792 7.83333H1.16666C0.930553 7.83333 0.732498 7.75333 0.572498 7.59333C0.412498 7.43333 0.332776 7.23556 0.333331 7C0.333331 6.76389 0.413331 6.56583 0.573331 6.40583C0.733331 6.24583 0.931109 6.16611 1.16666 6.16667H10.4792L6.39583 2.08333C6.24305 1.93056 6.17 1.73611 6.17666 1.5C6.18333 1.26389 6.26333 1.06944 6.41666 0.916666C6.56944 0.763889 6.76389 0.6875 7 0.6875C7.23611 0.6875 7.43055 0.763889 7.58333 0.916666L13.0833 6.41667C13.1667 6.48611 13.2258 6.57306 13.2608 6.6775C13.2958 6.78194 13.3131 6.88944 13.3125 7C13.3125 7.11111 13.2953 7.21528 13.2608 7.3125C13.2264 7.40972 13.1672 7.5 13.0833 7.58333L7.58333 13.0833C7.43055 13.2361 7.23611 13.3125 7 13.3125C6.76389 13.3125 6.56944 13.2361 6.41666 13.0833Z" fill="white"/>
</svg>
