<svg width="20" height="20" viewBox="0 0 20 20" fill="none" xmlns="http://www.w3.org/2000/svg">
<path d="M9.41668 16.0833C9.2639 15.9306 9.1839 15.7361 9.17668 15.5C9.16946 15.2639 9.24251 15.0694 9.39585 14.9167L13.4792 10.8333H4.16668C3.93057 10.8333 3.73251 10.7533 3.57251 10.5933C3.41251 10.4333 3.33279 10.2356 3.33335 10C3.33335 9.76389 3.41335 9.56583 3.57335 9.40583C3.73335 9.24583 3.93112 9.16611 4.16668 9.16667H13.4792L9.39585 5.08333C9.24307 4.93056 9.17001 4.73611 9.17668 4.5C9.18335 4.26389 9.26335 4.06944 9.41668 3.91667C9.56946 3.76389 9.7639 3.6875 10 3.6875C10.2361 3.6875 10.4306 3.76389 10.5833 3.91667L16.0833 9.41667C16.1667 9.48611 16.2258 9.57306 16.2608 9.6775C16.2958 9.78194 16.3131 9.88944 16.3125 10C16.3125 10.1111 16.2953 10.2153 16.2608 10.3125C16.2264 10.4097 16.1672 10.5 16.0833 10.5833L10.5833 16.0833C10.4306 16.2361 10.2361 16.3125 10 16.3125C9.7639 16.3125 9.56946 16.2361 9.41668 16.0833Z" fill="#10C843"/>
</svg>
